<mxfile host="app.diagrams.net" agent="Mozilla/5.0 (Windows NT 10.0; Win64; x64; rv:135.0) Gecko/20100101 Firefox/135.0" version="26.0.10">
  <diagram name="Страница — 1" id="yWJdMNFLJBnNQ2FDLtZL">
    <mxGraphModel dx="875" dy="1168" grid="1" gridSize="10" guides="1" tooltips="1" connect="1" arrows="1" fold="1" page="1" pageScale="1" pageWidth="2400" pageHeight="900" math="0" shadow="0">
      <root>
        <mxCell id="0" />
        <mxCell id="1" parent="0" />
        <mxCell id="DBAXHwcExQwCoNQj6KUt-49" value="&lt;div&gt;4x scalar masks (f4)&lt;br&gt;&lt;/div&gt;" style="swimlane;fontStyle=0;childLayout=stackLayout;horizontal=1;startSize=26;fillColor=none;horizontalStack=0;resizeParent=1;resizeParentMax=0;resizeLast=0;collapsible=1;marginBottom=0;whiteSpace=wrap;html=1;rounded=1;" parent="1" vertex="1">
          <mxGeometry x="1640" y="200" width="140" height="78" as="geometry">
            <mxRectangle x="360" y="560" width="130" height="30" as="alternateBounds" />
          </mxGeometry>
        </mxCell>
        <mxCell id="DBAXHwcExQwCoNQj6KUt-50" value="&lt;div&gt;MasksTex (2D)&lt;br&gt;&lt;/div&gt;" style="text;strokeColor=none;fillColor=none;align=left;verticalAlign=top;spacingLeft=4;spacingRight=4;overflow=hidden;rotatable=0;points=[[0,0.5],[1,0.5]];portConstraint=eastwest;whiteSpace=wrap;html=1;rounded=1;" parent="DBAXHwcExQwCoNQj6KUt-49" vertex="1">
          <mxGeometry y="26" width="140" height="26" as="geometry" />
        </mxCell>
        <mxCell id="DBAXHwcExQwCoNQj6KUt-53" value="&lt;div&gt;Main UVs (f2)&lt;br&gt;&lt;/div&gt;" style="text;strokeColor=none;fillColor=none;align=left;verticalAlign=top;spacingLeft=4;spacingRight=4;overflow=hidden;rotatable=0;points=[[0,0.5],[1,0.5]];portConstraint=eastwest;whiteSpace=wrap;html=1;rounded=1;" parent="DBAXHwcExQwCoNQj6KUt-49" vertex="1">
          <mxGeometry y="52" width="140" height="26" as="geometry" />
        </mxCell>
        <mxCell id="DBAXHwcExQwCoNQj6KUt-54" value="&lt;div&gt;4x DetailTex (4x RGB)&lt;br&gt;&lt;/div&gt;" style="swimlane;fontStyle=0;childLayout=stackLayout;horizontal=1;startSize=26;fillColor=none;horizontalStack=0;resizeParent=1;resizeParentMax=0;resizeLast=0;collapsible=1;marginBottom=0;whiteSpace=wrap;html=1;rounded=1;" parent="1" vertex="1">
          <mxGeometry x="1640" y="320" width="160" height="104" as="geometry">
            <mxRectangle x="560" y="240" width="130" height="30" as="alternateBounds" />
          </mxGeometry>
        </mxCell>
        <mxCell id="DBAXHwcExQwCoNQj6KUt-55" value="&lt;div&gt;DetailTex (array2D)&lt;br&gt;&lt;/div&gt;" style="text;strokeColor=none;fillColor=none;align=left;verticalAlign=top;spacingLeft=4;spacingRight=4;overflow=hidden;rotatable=0;points=[[0,0.5],[1,0.5]];portConstraint=eastwest;whiteSpace=wrap;html=1;rounded=1;" parent="DBAXHwcExQwCoNQj6KUt-54" vertex="1">
          <mxGeometry y="26" width="160" height="26" as="geometry" />
        </mxCell>
        <mxCell id="DBAXHwcExQwCoNQj6KUt-56" value="&lt;div&gt;4x UVs (2x f4)&lt;br&gt;&lt;/div&gt;" style="text;strokeColor=none;fillColor=none;align=left;verticalAlign=top;spacingLeft=4;spacingRight=4;overflow=hidden;rotatable=0;points=[[0,0.5],[1,0.5]];portConstraint=eastwest;whiteSpace=wrap;html=1;rounded=1;" parent="DBAXHwcExQwCoNQj6KUt-54" vertex="1">
          <mxGeometry y="52" width="160" height="26" as="geometry" />
        </mxCell>
        <mxCell id="DBAXHwcExQwCoNQj6KUt-57" value="&lt;div&gt;4x IDs (f4)&lt;/div&gt;" style="text;strokeColor=none;fillColor=none;align=left;verticalAlign=top;spacingLeft=4;spacingRight=4;overflow=hidden;rotatable=0;points=[[0,0.5],[1,0.5]];portConstraint=eastwest;whiteSpace=wrap;html=1;rounded=1;" parent="DBAXHwcExQwCoNQj6KUt-54" vertex="1">
          <mxGeometry y="78" width="160" height="26" as="geometry" />
        </mxCell>
        <mxCell id="DBAXHwcExQwCoNQj6KUt-59" value="&lt;div&gt;4x RGB&lt;br&gt;&amp;nbsp;Recolored DetailTex&lt;br&gt;&lt;/div&gt;" style="swimlane;fontStyle=0;childLayout=stackLayout;horizontal=1;startSize=40;fillColor=none;horizontalStack=0;resizeParent=1;resizeParentMax=0;resizeLast=0;collapsible=1;marginBottom=0;whiteSpace=wrap;html=1;rounded=1;" parent="1" vertex="1">
          <mxGeometry x="2040" y="320" width="140" height="92" as="geometry">
            <mxRectangle x="800" y="240" width="130" height="30" as="alternateBounds" />
          </mxGeometry>
        </mxCell>
        <mxCell id="DBAXHwcExQwCoNQj6KUt-60" value="&lt;div&gt;4x DetailTex (4x RGB)&lt;br&gt;&lt;/div&gt;" style="text;strokeColor=none;fillColor=none;align=left;verticalAlign=top;spacingLeft=4;spacingRight=4;overflow=hidden;rotatable=0;points=[[0,0.5],[1,0.5]];portConstraint=eastwest;whiteSpace=wrap;html=1;rounded=1;" parent="DBAXHwcExQwCoNQj6KUt-59" vertex="1">
          <mxGeometry y="40" width="140" height="26" as="geometry" />
        </mxCell>
        <mxCell id="DBAXHwcExQwCoNQj6KUt-61" value="4x Tints (4x RGB)" style="text;strokeColor=none;fillColor=none;align=left;verticalAlign=top;spacingLeft=4;spacingRight=4;overflow=hidden;rotatable=0;points=[[0,0.5],[1,0.5]];portConstraint=eastwest;whiteSpace=wrap;html=1;rounded=1;" parent="DBAXHwcExQwCoNQj6KUt-59" vertex="1">
          <mxGeometry y="66" width="140" height="26" as="geometry" />
        </mxCell>
        <mxCell id="DBAXHwcExQwCoNQj6KUt-63" style="edgeStyle=entityRelationEdgeStyle;rounded=1;orthogonalLoop=1;jettySize=auto;html=1;exitX=1;exitY=0.5;exitDx=0;exitDy=0;" parent="1" source="DBAXHwcExQwCoNQj6KUt-56" target="DBAXHwcExQwCoNQj6KUt-60" edge="1">
          <mxGeometry relative="1" as="geometry" />
        </mxCell>
        <mxCell id="DBAXHwcExQwCoNQj6KUt-69" value="&lt;div&gt;RGB Albedo&lt;/div&gt;" style="swimlane;fontStyle=0;childLayout=stackLayout;horizontal=1;startSize=26;fillColor=none;horizontalStack=0;resizeParent=1;resizeParentMax=0;resizeLast=0;collapsible=1;marginBottom=0;whiteSpace=wrap;html=1;rounded=1;" parent="1" vertex="1">
          <mxGeometry x="2240" y="200" width="140" height="100" as="geometry">
            <mxRectangle x="1010" y="120" width="130" height="30" as="alternateBounds" />
          </mxGeometry>
        </mxCell>
        <mxCell id="DBAXHwcExQwCoNQj6KUt-70" value="&lt;div&gt;4x scalar masks (f4)&lt;/div&gt;" style="text;strokeColor=none;fillColor=none;align=left;verticalAlign=top;spacingLeft=4;spacingRight=4;overflow=hidden;rotatable=0;points=[[0,0.5],[1,0.5]];portConstraint=eastwest;whiteSpace=wrap;html=1;rounded=1;" parent="DBAXHwcExQwCoNQj6KUt-69" vertex="1">
          <mxGeometry y="26" width="140" height="26" as="geometry" />
        </mxCell>
        <mxCell id="DBAXHwcExQwCoNQj6KUt-71" value="&lt;div&gt;4x RGB&lt;br&gt;&amp;nbsp;Recolored DetailTex&lt;/div&gt;" style="text;strokeColor=none;fillColor=none;align=left;verticalAlign=top;spacingLeft=4;spacingRight=4;overflow=hidden;rotatable=0;points=[[0,0.5],[1,0.5]];portConstraint=eastwest;whiteSpace=wrap;html=1;rounded=1;" parent="DBAXHwcExQwCoNQj6KUt-69" vertex="1">
          <mxGeometry y="52" width="140" height="48" as="geometry" />
        </mxCell>
        <mxCell id="DBAXHwcExQwCoNQj6KUt-72" style="edgeStyle=entityRelationEdgeStyle;rounded=1;orthogonalLoop=1;jettySize=auto;html=1;exitX=1;exitY=0.5;exitDx=0;exitDy=0;" parent="1" source="DBAXHwcExQwCoNQj6KUt-50" target="DBAXHwcExQwCoNQj6KUt-70" edge="1">
          <mxGeometry relative="1" as="geometry" />
        </mxCell>
        <mxCell id="DBAXHwcExQwCoNQj6KUt-73" style="edgeStyle=entityRelationEdgeStyle;rounded=1;orthogonalLoop=1;jettySize=auto;html=1;exitX=1;exitY=0.5;exitDx=0;exitDy=0;entryX=0;entryY=0.5;entryDx=0;entryDy=0;" parent="1" source="DBAXHwcExQwCoNQj6KUt-60" target="DBAXHwcExQwCoNQj6KUt-71" edge="1">
          <mxGeometry relative="1" as="geometry" />
        </mxCell>
        <mxCell id="DBAXHwcExQwCoNQj6KUt-75" value="4x Colors (4x RGB)" style="swimlane;fontStyle=0;childLayout=stackLayout;horizontal=1;startSize=26;fillColor=none;horizontalStack=0;resizeParent=1;resizeParentMax=0;resizeLast=0;collapsible=1;marginBottom=0;whiteSpace=wrap;html=1;rounded=1;" parent="1" vertex="1">
          <mxGeometry x="1800" y="440" width="180" height="78" as="geometry">
            <mxRectangle x="360" y="560" width="130" height="30" as="alternateBounds" />
          </mxGeometry>
        </mxCell>
        <mxCell id="DBAXHwcExQwCoNQj6KUt-76" value="&lt;div&gt;All colors for mesh (RGB Array)&lt;br&gt;&lt;/div&gt;" style="text;strokeColor=none;fillColor=none;align=left;verticalAlign=top;spacingLeft=4;spacingRight=4;overflow=hidden;rotatable=0;points=[[0,0.5],[1,0.5]];portConstraint=eastwest;whiteSpace=wrap;html=1;rounded=1;" parent="DBAXHwcExQwCoNQj6KUt-75" vertex="1">
          <mxGeometry y="26" width="180" height="26" as="geometry" />
        </mxCell>
        <mxCell id="DBAXHwcExQwCoNQj6KUt-77" value="&lt;div&gt;4x ColorArray-IDs (i4)&lt;br&gt;&lt;/div&gt;" style="text;strokeColor=none;fillColor=none;align=left;verticalAlign=top;spacingLeft=4;spacingRight=4;overflow=hidden;rotatable=0;points=[[0,0.5],[1,0.5]];portConstraint=eastwest;whiteSpace=wrap;html=1;rounded=1;" parent="DBAXHwcExQwCoNQj6KUt-75" vertex="1">
          <mxGeometry y="52" width="180" height="26" as="geometry" />
        </mxCell>
        <mxCell id="DBAXHwcExQwCoNQj6KUt-78" style="edgeStyle=entityRelationEdgeStyle;shape=connector;rounded=1;orthogonalLoop=1;jettySize=auto;html=1;exitX=1;exitY=0.5;exitDx=0;exitDy=0;strokeColor=default;align=center;verticalAlign=middle;fontFamily=Helvetica;fontSize=11;fontColor=default;labelBackgroundColor=default;endArrow=classic;" parent="1" source="DBAXHwcExQwCoNQj6KUt-76" target="DBAXHwcExQwCoNQj6KUt-61" edge="1">
          <mxGeometry relative="1" as="geometry" />
        </mxCell>
        <mxCell id="DBAXHwcExQwCoNQj6KUt-81" style="edgeStyle=entityRelationEdgeStyle;shape=connector;rounded=1;orthogonalLoop=1;jettySize=auto;html=1;exitX=1;exitY=0.5;exitDx=0;exitDy=0;strokeColor=light-dark(#000000,#009900);align=center;verticalAlign=middle;fontFamily=Helvetica;fontSize=11;fontColor=default;labelBackgroundColor=default;endArrow=classic;" parent="1" source="DBAXHwcExQwCoNQj6KUt-80" target="DBAXHwcExQwCoNQj6KUt-50" edge="1">
          <mxGeometry relative="1" as="geometry" />
        </mxCell>
        <mxCell id="DBAXHwcExQwCoNQj6KUt-80" value="&lt;div&gt;MasksTex (2D)&lt;/div&gt;" style="whiteSpace=wrap;html=1;rounded=1;fontFamily=Helvetica;fontSize=11;labelBackgroundColor=none;fillColor=none;strokeColor=light-dark(#000000,#009900);" parent="1" vertex="1">
          <mxGeometry x="1380" y="39" width="100" height="40" as="geometry" />
        </mxCell>
        <mxCell id="DBAXHwcExQwCoNQj6KUt-83" style="edgeStyle=entityRelationEdgeStyle;shape=connector;rounded=1;orthogonalLoop=1;jettySize=auto;html=1;exitX=1;exitY=0.5;exitDx=0;exitDy=0;strokeColor=light-dark(#000000,#7F00FF);align=center;verticalAlign=middle;fontFamily=Helvetica;fontSize=11;fontColor=default;labelBackgroundColor=default;endArrow=classic;" parent="1" source="DBAXHwcExQwCoNQj6KUt-82" target="DBAXHwcExQwCoNQj6KUt-55" edge="1">
          <mxGeometry relative="1" as="geometry" />
        </mxCell>
        <mxCell id="DBAXHwcExQwCoNQj6KUt-82" value="&lt;div&gt;DetailTex (array2D)&lt;/div&gt;" style="whiteSpace=wrap;html=1;rounded=1;fontFamily=Helvetica;fontSize=11;fontColor=default;labelBackgroundColor=none;fillColor=none;strokeColor=light-dark(#000000,#7F00FF);" parent="1" vertex="1">
          <mxGeometry x="1360" y="90" width="120" height="40" as="geometry" />
        </mxCell>
        <mxCell id="DBAXHwcExQwCoNQj6KUt-85" style="edgeStyle=entityRelationEdgeStyle;shape=connector;rounded=1;orthogonalLoop=1;jettySize=auto;html=1;exitX=1;exitY=0.5;exitDx=0;exitDy=0;strokeColor=light-dark(#000000,#CC6600);align=center;verticalAlign=middle;fontFamily=Helvetica;fontSize=11;fontColor=default;labelBackgroundColor=default;endArrow=classic;" parent="1" source="DBAXHwcExQwCoNQj6KUt-84" target="DBAXHwcExQwCoNQj6KUt-101" edge="1">
          <mxGeometry relative="1" as="geometry" />
        </mxCell>
        <mxCell id="DBAXHwcExQwCoNQj6KUt-84" value="All colors for mesh (RGB Array)" style="whiteSpace=wrap;html=1;rounded=1;fontFamily=Helvetica;fontSize=11;fontColor=default;labelBackgroundColor=none;fillColor=none;strokeColor=light-dark(#000000,#CC6600);" parent="1" vertex="1">
          <mxGeometry x="1240" y="160" width="120" height="40" as="geometry" />
        </mxCell>
        <mxCell id="DBAXHwcExQwCoNQj6KUt-86" value="V2F" style="swimlane;fontStyle=0;childLayout=stackLayout;horizontal=1;startSize=26;fillColor=none;horizontalStack=0;resizeParent=1;resizeParentMax=0;resizeLast=0;collapsible=1;marginBottom=0;whiteSpace=wrap;html=1;rounded=1;strokeColor=light-dark(#000000,#FF3333);" parent="1" vertex="1">
          <mxGeometry x="1200" y="320" width="160" height="156" as="geometry">
            <mxRectangle x="680" y="320" width="130" height="30" as="alternateBounds" />
          </mxGeometry>
        </mxCell>
        <mxCell id="DBAXHwcExQwCoNQj6KUt-93" value="&lt;div align=&quot;center&quot;&gt;&lt;div&gt;Main UVs (f2)&lt;/div&gt;&lt;/div&gt;" style="text;strokeColor=none;fillColor=none;align=center;verticalAlign=top;spacingLeft=4;spacingRight=4;overflow=hidden;rotatable=0;points=[[0,0.5],[1,0.5]];portConstraint=eastwest;whiteSpace=wrap;html=1;rounded=1;" parent="DBAXHwcExQwCoNQj6KUt-86" vertex="1">
          <mxGeometry y="26" width="160" height="26" as="geometry" />
        </mxCell>
        <mxCell id="DBAXHwcExQwCoNQj6KUt-109" value="&lt;div align=&quot;center&quot;&gt;&lt;div&gt;PatternTex UVs (f2)&lt;/div&gt;&lt;/div&gt;" style="text;strokeColor=none;fillColor=none;align=center;verticalAlign=top;spacingLeft=4;spacingRight=4;overflow=hidden;rotatable=0;points=[[0,0.5],[1,0.5]];portConstraint=eastwest;whiteSpace=wrap;html=1;rounded=1;" parent="DBAXHwcExQwCoNQj6KUt-86" vertex="1">
          <mxGeometry y="52" width="160" height="26" as="geometry" />
        </mxCell>
        <mxCell id="DBAXHwcExQwCoNQj6KUt-89" value="&lt;div align=&quot;center&quot;&gt;&lt;div&gt;ColorArray-IDs (i4)&lt;br&gt;&lt;/div&gt;&lt;/div&gt;" style="text;strokeColor=none;fillColor=none;align=center;verticalAlign=top;spacingLeft=4;spacingRight=4;overflow=hidden;rotatable=0;points=[[0,0.5],[1,0.5]];portConstraint=eastwest;whiteSpace=wrap;html=1;rounded=1;" parent="DBAXHwcExQwCoNQj6KUt-86" vertex="1">
          <mxGeometry y="78" width="160" height="26" as="geometry" />
        </mxCell>
        <mxCell id="DBAXHwcExQwCoNQj6KUt-87" value="&lt;div align=&quot;center&quot;&gt;4x DetailTex UVs (2x f4)&lt;/div&gt;" style="text;strokeColor=none;fillColor=none;align=center;verticalAlign=top;spacingLeft=4;spacingRight=4;overflow=hidden;rotatable=0;points=[[0,0.5],[1,0.5]];portConstraint=eastwest;whiteSpace=wrap;html=1;rounded=1;" parent="DBAXHwcExQwCoNQj6KUt-86" vertex="1">
          <mxGeometry y="104" width="160" height="26" as="geometry" />
        </mxCell>
        <mxCell id="DBAXHwcExQwCoNQj6KUt-88" value="&lt;div align=&quot;center&quot;&gt;&lt;div&gt;DetailTex IDs (f4)&lt;/div&gt;&lt;/div&gt;" style="text;strokeColor=none;fillColor=none;align=center;verticalAlign=top;spacingLeft=4;spacingRight=4;overflow=hidden;rotatable=0;points=[[0,0.5],[1,0.5]];portConstraint=eastwest;whiteSpace=wrap;html=1;rounded=1;" parent="DBAXHwcExQwCoNQj6KUt-86" vertex="1">
          <mxGeometry y="130" width="160" height="26" as="geometry" />
        </mxCell>
        <mxCell id="DBAXHwcExQwCoNQj6KUt-90" style="shape=connector;rounded=1;orthogonalLoop=1;jettySize=auto;html=1;exitX=1;exitY=0.5;exitDx=0;exitDy=0;strokeColor=default;align=center;verticalAlign=middle;fontFamily=Helvetica;fontSize=11;fontColor=default;labelBackgroundColor=default;endArrow=classic;edgeStyle=entityRelationEdgeStyle;" parent="1" source="DBAXHwcExQwCoNQj6KUt-87" target="DBAXHwcExQwCoNQj6KUt-56" edge="1">
          <mxGeometry relative="1" as="geometry" />
        </mxCell>
        <mxCell id="DBAXHwcExQwCoNQj6KUt-91" style="edgeStyle=entityRelationEdgeStyle;shape=connector;rounded=1;orthogonalLoop=1;jettySize=auto;html=1;exitX=1;exitY=0.5;exitDx=0;exitDy=0;strokeColor=default;align=center;verticalAlign=middle;fontFamily=Helvetica;fontSize=11;fontColor=default;labelBackgroundColor=default;endArrow=classic;" parent="1" source="DBAXHwcExQwCoNQj6KUt-88" target="DBAXHwcExQwCoNQj6KUt-57" edge="1">
          <mxGeometry relative="1" as="geometry" />
        </mxCell>
        <mxCell id="DBAXHwcExQwCoNQj6KUt-92" style="edgeStyle=entityRelationEdgeStyle;shape=connector;rounded=1;orthogonalLoop=1;jettySize=auto;html=1;exitX=1;exitY=0.5;exitDx=0;exitDy=0;strokeColor=default;align=center;verticalAlign=middle;fontFamily=Helvetica;fontSize=11;fontColor=default;labelBackgroundColor=default;endArrow=classic;" parent="1" source="DBAXHwcExQwCoNQj6KUt-89" target="DBAXHwcExQwCoNQj6KUt-77" edge="1">
          <mxGeometry relative="1" as="geometry" />
        </mxCell>
        <mxCell id="DBAXHwcExQwCoNQj6KUt-94" style="edgeStyle=entityRelationEdgeStyle;shape=connector;rounded=1;orthogonalLoop=1;jettySize=auto;html=1;exitX=1;exitY=0.5;exitDx=0;exitDy=0;strokeColor=default;align=center;verticalAlign=middle;fontFamily=Helvetica;fontSize=11;fontColor=default;labelBackgroundColor=default;endArrow=classic;" parent="1" source="DBAXHwcExQwCoNQj6KUt-93" target="DBAXHwcExQwCoNQj6KUt-53" edge="1">
          <mxGeometry relative="1" as="geometry" />
        </mxCell>
        <mxCell id="DBAXHwcExQwCoNQj6KUt-97" value="&lt;div&gt;&lt;div align=&quot;center&quot;&gt;4x DetailTex UVs (2x f4)&lt;/div&gt;&lt;/div&gt;" style="swimlane;fontStyle=0;childLayout=stackLayout;horizontal=1;startSize=26;fillColor=none;horizontalStack=0;resizeParent=1;resizeParentMax=0;resizeLast=0;collapsible=1;marginBottom=0;whiteSpace=wrap;html=1;rounded=1;" parent="1" vertex="1">
          <mxGeometry x="540" y="340" width="160" height="78" as="geometry">
            <mxRectangle x="360" y="560" width="130" height="30" as="alternateBounds" />
          </mxGeometry>
        </mxCell>
        <mxCell id="DBAXHwcExQwCoNQj6KUt-98" value="&lt;div&gt;3x UV-sets (3x f2)&lt;/div&gt;" style="text;strokeColor=none;fillColor=none;align=left;verticalAlign=top;spacingLeft=4;spacingRight=4;overflow=hidden;rotatable=0;points=[[0,0.5],[1,0.5]];portConstraint=eastwest;whiteSpace=wrap;html=1;rounded=1;" parent="DBAXHwcExQwCoNQj6KUt-97" vertex="1">
          <mxGeometry y="26" width="160" height="26" as="geometry" />
        </mxCell>
        <mxCell id="DBAXHwcExQwCoNQj6KUt-99" value="4x UV-set IDs (i4, 0-2)" style="text;strokeColor=none;fillColor=none;align=left;verticalAlign=top;spacingLeft=4;spacingRight=4;overflow=hidden;rotatable=0;points=[[0,0.5],[1,0.5]];portConstraint=eastwest;whiteSpace=wrap;html=1;rounded=1;" parent="DBAXHwcExQwCoNQj6KUt-97" vertex="1">
          <mxGeometry y="52" width="160" height="26" as="geometry" />
        </mxCell>
        <mxCell id="DBAXHwcExQwCoNQj6KUt-100" value="Colors Array (patterns applied)" style="swimlane;fontStyle=0;childLayout=stackLayout;horizontal=1;startSize=26;fillColor=none;horizontalStack=0;resizeParent=1;resizeParentMax=0;resizeLast=0;collapsible=1;marginBottom=0;whiteSpace=wrap;html=1;rounded=1;" parent="1" vertex="1">
          <mxGeometry x="1520" y="502" width="200" height="130" as="geometry">
            <mxRectangle x="360" y="560" width="130" height="30" as="alternateBounds" />
          </mxGeometry>
        </mxCell>
        <mxCell id="DBAXHwcExQwCoNQj6KUt-101" value="&lt;div&gt;All colors for mesh (RGB Array)&lt;br&gt;&lt;/div&gt;" style="text;strokeColor=none;fillColor=none;align=left;verticalAlign=top;spacingLeft=4;spacingRight=4;overflow=hidden;rotatable=0;points=[[0,0.5],[1,0.5]];portConstraint=eastwest;whiteSpace=wrap;html=1;rounded=1;" parent="DBAXHwcExQwCoNQj6KUt-100" vertex="1">
          <mxGeometry y="26" width="200" height="26" as="geometry" />
        </mxCell>
        <mxCell id="DBAXHwcExQwCoNQj6KUt-102" value="PatternTex (array2D)" style="text;strokeColor=none;fillColor=none;align=left;verticalAlign=top;spacingLeft=4;spacingRight=4;overflow=hidden;rotatable=0;points=[[0,0.5],[1,0.5]];portConstraint=eastwest;whiteSpace=wrap;html=1;rounded=1;" parent="DBAXHwcExQwCoNQj6KUt-100" vertex="1">
          <mxGeometry y="52" width="200" height="26" as="geometry" />
        </mxCell>
        <mxCell id="DBAXHwcExQwCoNQj6KUt-104" value="&lt;div&gt;3x PatternTex-IDs (f3)&lt;br&gt;&lt;/div&gt;" style="text;strokeColor=none;fillColor=none;align=left;verticalAlign=top;spacingLeft=4;spacingRight=4;overflow=hidden;rotatable=0;points=[[0,0.5],[1,0.5]];portConstraint=eastwest;whiteSpace=wrap;html=1;rounded=1;" parent="DBAXHwcExQwCoNQj6KUt-100" vertex="1">
          <mxGeometry y="78" width="200" height="26" as="geometry" />
        </mxCell>
        <mxCell id="DBAXHwcExQwCoNQj6KUt-103" value="&lt;div&gt;PatternTex UVs (f2)&lt;br&gt;&lt;/div&gt;" style="text;strokeColor=none;fillColor=none;align=left;verticalAlign=top;spacingLeft=4;spacingRight=4;overflow=hidden;rotatable=0;points=[[0,0.5],[1,0.5]];portConstraint=eastwest;whiteSpace=wrap;html=1;rounded=1;" parent="DBAXHwcExQwCoNQj6KUt-100" vertex="1">
          <mxGeometry y="104" width="200" height="26" as="geometry" />
        </mxCell>
        <mxCell id="DBAXHwcExQwCoNQj6KUt-107" style="edgeStyle=entityRelationEdgeStyle;shape=connector;rounded=1;orthogonalLoop=1;jettySize=auto;html=1;exitX=1;exitY=0.5;exitDx=0;exitDy=0;strokeColor=light-dark(#000000,#7F00FF);align=center;verticalAlign=middle;fontFamily=Helvetica;fontSize=11;fontColor=default;labelBackgroundColor=default;endArrow=classic;" parent="1" source="DBAXHwcExQwCoNQj6KUt-106" target="DBAXHwcExQwCoNQj6KUt-102" edge="1">
          <mxGeometry relative="1" as="geometry" />
        </mxCell>
        <mxCell id="DBAXHwcExQwCoNQj6KUt-106" value="&lt;div&gt;PatternTex (array2D)&lt;/div&gt;" style="whiteSpace=wrap;html=1;rounded=1;fontFamily=Helvetica;fontSize=11;fontColor=default;labelBackgroundColor=none;fillColor=none;strokeColor=light-dark(#000000,#7F00FF);" parent="1" vertex="1">
          <mxGeometry x="1230" y="199" width="120" height="40" as="geometry" />
        </mxCell>
        <mxCell id="DBAXHwcExQwCoNQj6KUt-110" style="edgeStyle=entityRelationEdgeStyle;shape=connector;rounded=1;orthogonalLoop=1;jettySize=auto;html=1;exitX=1;exitY=0.5;exitDx=0;exitDy=0;strokeColor=default;align=center;verticalAlign=middle;fontFamily=Helvetica;fontSize=11;fontColor=default;labelBackgroundColor=default;endArrow=classic;" parent="1" source="DBAXHwcExQwCoNQj6KUt-109" target="DBAXHwcExQwCoNQj6KUt-103" edge="1">
          <mxGeometry relative="1" as="geometry" />
        </mxCell>
        <mxCell id="DBAXHwcExQwCoNQj6KUt-113" style="edgeStyle=entityRelationEdgeStyle;shape=connector;rounded=1;orthogonalLoop=1;jettySize=auto;html=1;exitX=1;exitY=0.5;exitDx=0;exitDy=0;entryX=0;entryY=0.5;entryDx=0;entryDy=0;strokeColor=default;align=center;verticalAlign=middle;fontFamily=Helvetica;fontSize=11;fontColor=default;labelBackgroundColor=default;endArrow=classic;" parent="1" source="DBAXHwcExQwCoNQj6KUt-102" target="DBAXHwcExQwCoNQj6KUt-76" edge="1">
          <mxGeometry relative="1" as="geometry" />
        </mxCell>
        <mxCell id="DBAXHwcExQwCoNQj6KUt-114" style="edgeStyle=entityRelationEdgeStyle;shape=connector;rounded=1;orthogonalLoop=1;jettySize=auto;html=1;exitX=1;exitY=0.5;exitDx=0;exitDy=0;strokeColor=default;align=center;verticalAlign=middle;fontFamily=Helvetica;fontSize=11;fontColor=default;labelBackgroundColor=default;endArrow=classic;" parent="1" source="DBAXHwcExQwCoNQj6KUt-98" target="DBAXHwcExQwCoNQj6KUt-87" edge="1">
          <mxGeometry relative="1" as="geometry" />
        </mxCell>
        <mxCell id="DBAXHwcExQwCoNQj6KUt-116" value="Mesh" style="swimlane;fontStyle=0;childLayout=stackLayout;horizontal=1;startSize=26;fillColor=none;horizontalStack=0;resizeParent=1;resizeParentMax=0;resizeLast=0;collapsible=1;marginBottom=0;whiteSpace=wrap;html=1;rounded=1;" parent="1" vertex="1">
          <mxGeometry x="40" y="158" width="200" height="182" as="geometry">
            <mxRectangle x="680" y="320" width="130" height="30" as="alternateBounds" />
          </mxGeometry>
        </mxCell>
        <mxCell id="DBAXHwcExQwCoNQj6KUt-117" value="&lt;div align=&quot;center&quot;&gt;&lt;div align=&quot;center&quot;&gt;&lt;div&gt;Main/PatternTex UVs (f2/f2)&lt;/div&gt;&lt;/div&gt;&lt;/div&gt;" style="text;strokeColor=none;fillColor=none;align=center;verticalAlign=top;spacingLeft=4;spacingRight=4;overflow=hidden;rotatable=0;points=[[0,0.5],[1,0.5]];portConstraint=eastwest;whiteSpace=wrap;html=1;rounded=1;" parent="DBAXHwcExQwCoNQj6KUt-116" vertex="1">
          <mxGeometry y="26" width="200" height="26" as="geometry" />
        </mxCell>
        <mxCell id="DBAXHwcExQwCoNQj6KUt-119" value="&lt;div align=&quot;center&quot;&gt;&lt;div&gt;ColorArray-IDs (f4)&lt;br&gt;&lt;/div&gt;&lt;/div&gt;" style="text;strokeColor=none;fillColor=none;align=center;verticalAlign=top;spacingLeft=4;spacingRight=4;overflow=hidden;rotatable=0;points=[[0,0.5],[1,0.5]];portConstraint=eastwest;whiteSpace=wrap;html=1;rounded=1;" parent="DBAXHwcExQwCoNQj6KUt-116" vertex="1">
          <mxGeometry y="52" width="200" height="26" as="geometry" />
        </mxCell>
        <mxCell id="DBAXHwcExQwCoNQj6KUt-138" value="Default DetailTex IDs (f4)" style="text;strokeColor=none;fillColor=none;align=center;verticalAlign=top;spacingLeft=4;spacingRight=4;overflow=hidden;rotatable=0;points=[[0,0.5],[1,0.5]];portConstraint=eastwest;whiteSpace=wrap;html=1;rounded=1;" parent="DBAXHwcExQwCoNQj6KUt-116" vertex="1">
          <mxGeometry y="78" width="200" height="26" as="geometry" />
        </mxCell>
        <mxCell id="DBAXHwcExQwCoNQj6KUt-131" value="&lt;div align=&quot;center&quot;&gt;Encoded 4x UV-set IDs (f1)&lt;/div&gt;" style="text;strokeColor=none;fillColor=none;align=center;verticalAlign=top;spacingLeft=4;spacingRight=4;overflow=hidden;rotatable=0;points=[[0,0.5],[1,0.5]];portConstraint=eastwest;whiteSpace=wrap;html=1;rounded=1;" parent="DBAXHwcExQwCoNQj6KUt-116" vertex="1">
          <mxGeometry y="104" width="200" height="26" as="geometry" />
        </mxCell>
        <mxCell id="DBAXHwcExQwCoNQj6KUt-139" value="&lt;div align=&quot;center&quot;&gt;&lt;div align=&quot;center&quot;&gt;Encoded 4x Mask-indicators (f1)&lt;/div&gt;&lt;/div&gt;" style="text;strokeColor=none;fillColor=none;align=center;verticalAlign=top;spacingLeft=4;spacingRight=4;overflow=hidden;rotatable=0;points=[[0,0.5],[1,0.5]];portConstraint=eastwest;whiteSpace=wrap;html=1;rounded=1;" parent="DBAXHwcExQwCoNQj6KUt-116" vertex="1">
          <mxGeometry y="130" width="200" height="26" as="geometry" />
        </mxCell>
        <mxCell id="DBAXHwcExQwCoNQj6KUt-128" value="&lt;div align=&quot;center&quot;&gt;1x[/2x/3x] DetailTex UV-sets (f2/f4)&lt;/div&gt;" style="text;strokeColor=none;fillColor=none;align=center;verticalAlign=top;spacingLeft=4;spacingRight=4;overflow=hidden;rotatable=0;points=[[0,0.5],[1,0.5]];portConstraint=eastwest;whiteSpace=wrap;html=1;rounded=1;" parent="DBAXHwcExQwCoNQj6KUt-116" vertex="1">
          <mxGeometry y="156" width="200" height="26" as="geometry" />
        </mxCell>
        <mxCell id="DBAXHwcExQwCoNQj6KUt-123" style="edgeStyle=entityRelationEdgeStyle;shape=connector;rounded=1;orthogonalLoop=1;jettySize=auto;html=1;exitX=1;exitY=0.5;exitDx=0;exitDy=0;strokeColor=default;align=center;verticalAlign=middle;fontFamily=Helvetica;fontSize=11;fontColor=default;labelBackgroundColor=default;endArrow=classic;" parent="1" source="DBAXHwcExQwCoNQj6KUt-117" target="DBAXHwcExQwCoNQj6KUt-93" edge="1">
          <mxGeometry relative="1" as="geometry" />
        </mxCell>
        <mxCell id="DBAXHwcExQwCoNQj6KUt-125" style="edgeStyle=entityRelationEdgeStyle;shape=connector;rounded=1;orthogonalLoop=1;jettySize=auto;html=1;exitX=1;exitY=0.5;exitDx=0;exitDy=0;strokeColor=default;align=center;verticalAlign=middle;fontFamily=Helvetica;fontSize=11;fontColor=default;labelBackgroundColor=default;endArrow=classic;" parent="1" source="DBAXHwcExQwCoNQj6KUt-117" target="DBAXHwcExQwCoNQj6KUt-109" edge="1">
          <mxGeometry relative="1" as="geometry" />
        </mxCell>
        <mxCell id="DBAXHwcExQwCoNQj6KUt-127" style="edgeStyle=entityRelationEdgeStyle;shape=connector;rounded=1;orthogonalLoop=1;jettySize=auto;html=1;exitX=1;exitY=0.5;exitDx=0;exitDy=0;strokeColor=default;align=center;verticalAlign=middle;fontFamily=Helvetica;fontSize=11;fontColor=default;labelBackgroundColor=default;endArrow=classic;" parent="1" source="DBAXHwcExQwCoNQj6KUt-119" target="DBAXHwcExQwCoNQj6KUt-89" edge="1">
          <mxGeometry relative="1" as="geometry" />
        </mxCell>
        <mxCell id="DBAXHwcExQwCoNQj6KUt-130" style="edgeStyle=entityRelationEdgeStyle;shape=connector;rounded=1;orthogonalLoop=1;jettySize=auto;html=1;exitX=1;exitY=0.5;exitDx=0;exitDy=0;strokeColor=default;align=center;verticalAlign=middle;fontFamily=Helvetica;fontSize=11;fontColor=default;labelBackgroundColor=default;endArrow=classic;" parent="1" source="DBAXHwcExQwCoNQj6KUt-128" target="DBAXHwcExQwCoNQj6KUt-98" edge="1">
          <mxGeometry relative="1" as="geometry" />
        </mxCell>
        <mxCell id="DBAXHwcExQwCoNQj6KUt-159" style="edgeStyle=entityRelationEdgeStyle;shape=connector;rounded=1;orthogonalLoop=1;jettySize=auto;html=1;exitX=1;exitY=0.5;exitDx=0;exitDy=0;strokeColor=default;align=center;verticalAlign=middle;fontFamily=Helvetica;fontSize=11;fontColor=default;labelBackgroundColor=default;endArrow=classic;" parent="1" source="DBAXHwcExQwCoNQj6KUt-132" target="DBAXHwcExQwCoNQj6KUt-99" edge="1">
          <mxGeometry relative="1" as="geometry" />
        </mxCell>
        <mxCell id="DBAXHwcExQwCoNQj6KUt-132" value="&lt;div&gt;&lt;div align=&quot;center&quot;&gt;4x UV-set IDs (i4, n3: 0-2)&lt;/div&gt;&lt;/div&gt;" style="swimlane;fontStyle=0;childLayout=stackLayout;horizontal=1;startSize=26;fillColor=none;horizontalStack=0;resizeParent=1;resizeParentMax=0;resizeLast=0;collapsible=1;marginBottom=0;whiteSpace=wrap;html=1;rounded=1;" parent="1" vertex="1">
          <mxGeometry x="320" y="398" width="160" height="52" as="geometry">
            <mxRectangle x="320" y="398" width="130" height="30" as="alternateBounds" />
          </mxGeometry>
        </mxCell>
        <mxCell id="DBAXHwcExQwCoNQj6KUt-134" value="&lt;div align=&quot;center&quot;&gt;Encoded UV-set IDs (f1)&lt;/div&gt;" style="text;strokeColor=none;fillColor=none;align=left;verticalAlign=top;spacingLeft=4;spacingRight=4;overflow=hidden;rotatable=0;points=[[0,0.5],[1,0.5]];portConstraint=eastwest;whiteSpace=wrap;html=1;rounded=1;" parent="DBAXHwcExQwCoNQj6KUt-132" vertex="1">
          <mxGeometry y="26" width="160" height="26" as="geometry" />
        </mxCell>
        <mxCell id="DBAXHwcExQwCoNQj6KUt-135" style="edgeStyle=entityRelationEdgeStyle;shape=connector;rounded=1;orthogonalLoop=1;jettySize=auto;html=1;exitX=1;exitY=0.5;exitDx=0;exitDy=0;strokeColor=default;align=center;verticalAlign=middle;fontFamily=Helvetica;fontSize=11;fontColor=default;labelBackgroundColor=default;endArrow=classic;" parent="1" source="DBAXHwcExQwCoNQj6KUt-131" target="DBAXHwcExQwCoNQj6KUt-134" edge="1">
          <mxGeometry relative="1" as="geometry" />
        </mxCell>
        <mxCell id="DBAXHwcExQwCoNQj6KUt-140" value="&lt;div&gt;&lt;div align=&quot;center&quot;&gt;Mask-indicators&lt;/div&gt;&lt;/div&gt;" style="swimlane;fontStyle=0;childLayout=stackLayout;horizontal=1;startSize=26;fillColor=none;horizontalStack=0;resizeParent=1;resizeParentMax=0;resizeLast=0;collapsible=1;marginBottom=0;whiteSpace=wrap;html=1;rounded=1;" parent="1" vertex="1">
          <mxGeometry x="320" y="480" width="240" height="104" as="geometry">
            <mxRectangle x="360" y="560" width="130" height="30" as="alternateBounds" />
          </mxGeometry>
        </mxCell>
        <mxCell id="DBAXHwcExQwCoNQj6KUt-141" value="&lt;div align=&quot;center&quot;&gt;&lt;div align=&quot;center&quot;&gt;&amp;gt; Encoded 4x Mask-indicators (f1)&lt;/div&gt;&lt;/div&gt;" style="text;strokeColor=none;fillColor=none;align=left;verticalAlign=top;spacingLeft=4;spacingRight=4;overflow=hidden;rotatable=0;points=[[0,0.5],[1,0.5]];portConstraint=eastwest;whiteSpace=wrap;html=1;rounded=1;" parent="DBAXHwcExQwCoNQj6KUt-140" vertex="1">
          <mxGeometry y="26" width="240" height="26" as="geometry" />
        </mxCell>
        <mxCell id="DBAXHwcExQwCoNQj6KUt-142" value="&lt;div align=&quot;right&quot;&gt;&lt;div&gt;4x Mask-indicators (i4, n3: 0-2) &amp;gt;&lt;br&gt;&lt;/div&gt;&lt;/div&gt;" style="text;strokeColor=none;fillColor=none;align=right;verticalAlign=top;spacingLeft=4;spacingRight=4;overflow=hidden;rotatable=0;points=[[0,0.5],[1,0.5]];portConstraint=eastwest;whiteSpace=wrap;html=1;rounded=1;" parent="DBAXHwcExQwCoNQj6KUt-140" vertex="1">
          <mxGeometry y="52" width="240" height="26" as="geometry" />
        </mxCell>
        <mxCell id="DBAXHwcExQwCoNQj6KUt-144" value="&lt;div align=&quot;right&quot;&gt;&lt;div&gt;4x Sub-Detail flags (i4, n2: 0-1) &amp;gt;&lt;br&gt;&lt;/div&gt;&lt;/div&gt;" style="text;strokeColor=none;fillColor=none;align=right;verticalAlign=top;spacingLeft=4;spacingRight=4;overflow=hidden;rotatable=0;points=[[0,0.5],[1,0.5]];portConstraint=eastwest;whiteSpace=wrap;html=1;rounded=1;" parent="DBAXHwcExQwCoNQj6KUt-140" vertex="1">
          <mxGeometry y="78" width="240" height="26" as="geometry" />
        </mxCell>
        <mxCell id="DBAXHwcExQwCoNQj6KUt-143" style="edgeStyle=entityRelationEdgeStyle;shape=connector;rounded=1;orthogonalLoop=1;jettySize=auto;html=1;exitX=1;exitY=0.5;exitDx=0;exitDy=0;strokeColor=default;align=center;verticalAlign=middle;fontFamily=Helvetica;fontSize=11;fontColor=default;labelBackgroundColor=default;endArrow=classic;" parent="1" source="DBAXHwcExQwCoNQj6KUt-139" target="DBAXHwcExQwCoNQj6KUt-141" edge="1">
          <mxGeometry relative="1" as="geometry" />
        </mxCell>
        <mxCell id="DBAXHwcExQwCoNQj6KUt-160" style="edgeStyle=entityRelationEdgeStyle;shape=connector;rounded=1;orthogonalLoop=1;jettySize=auto;html=1;exitX=1;exitY=0.5;exitDx=0;exitDy=0;strokeColor=default;align=center;verticalAlign=middle;fontFamily=Helvetica;fontSize=11;fontColor=default;labelBackgroundColor=default;endArrow=classic;" parent="1" source="DBAXHwcExQwCoNQj6KUt-145" target="DBAXHwcExQwCoNQj6KUt-88" edge="1">
          <mxGeometry relative="1" as="geometry" />
        </mxCell>
        <mxCell id="DBAXHwcExQwCoNQj6KUt-145" value="&lt;div align=&quot;center&quot;&gt;&lt;div&gt;DetailTex IDs&lt;br&gt;(customized) (f4)&lt;/div&gt;&lt;/div&gt;" style="swimlane;fontStyle=0;childLayout=stackLayout;horizontal=1;startSize=40;fillColor=none;horizontalStack=0;resizeParent=1;resizeParentMax=0;resizeLast=0;collapsible=1;marginBottom=0;whiteSpace=wrap;html=1;rounded=1;" parent="1" vertex="1">
          <mxGeometry x="760" y="439" width="200" height="170" as="geometry">
            <mxRectangle x="800" y="600" width="130" height="30" as="alternateBounds" />
          </mxGeometry>
        </mxCell>
        <mxCell id="DBAXHwcExQwCoNQj6KUt-146" value="&lt;div&gt;Default DetailTex IDs (f4)&lt;/div&gt;" style="text;strokeColor=none;fillColor=none;align=left;verticalAlign=top;spacingLeft=4;spacingRight=4;overflow=hidden;rotatable=0;points=[[0,0.5],[1,0.5]];portConstraint=eastwest;whiteSpace=wrap;html=1;rounded=1;" parent="DBAXHwcExQwCoNQj6KUt-145" vertex="1">
          <mxGeometry y="40" width="200" height="26" as="geometry" />
        </mxCell>
        <mxCell id="DBAXHwcExQwCoNQj6KUt-147" value="4x Mask-indicators (i4)" style="text;strokeColor=none;fillColor=none;align=left;verticalAlign=top;spacingLeft=4;spacingRight=4;overflow=hidden;rotatable=0;points=[[0,0.5],[1,0.5]];portConstraint=eastwest;whiteSpace=wrap;html=1;rounded=1;" parent="DBAXHwcExQwCoNQj6KUt-145" vertex="1">
          <mxGeometry y="66" width="200" height="26" as="geometry" />
        </mxCell>
        <mxCell id="DBAXHwcExQwCoNQj6KUt-149" value="4x Sub-Detail flags (i4)" style="text;strokeColor=none;fillColor=none;align=left;verticalAlign=top;spacingLeft=4;spacingRight=4;overflow=hidden;rotatable=0;points=[[0,0.5],[1,0.5]];portConstraint=eastwest;whiteSpace=wrap;html=1;rounded=1;" parent="DBAXHwcExQwCoNQj6KUt-145" vertex="1">
          <mxGeometry y="92" width="200" height="26" as="geometry" />
        </mxCell>
        <mxCell id="DBAXHwcExQwCoNQj6KUt-153" value="3x Custom DetailTex IDs (3x i)" style="text;strokeColor=none;fillColor=none;align=left;verticalAlign=top;spacingLeft=4;spacingRight=4;overflow=hidden;rotatable=0;points=[[0,0.5],[1,0.5]];portConstraint=eastwest;whiteSpace=wrap;html=1;rounded=1;" parent="DBAXHwcExQwCoNQj6KUt-145" vertex="1">
          <mxGeometry y="118" width="200" height="26" as="geometry" />
        </mxCell>
        <mxCell id="DBAXHwcExQwCoNQj6KUt-157" value="3x Custom Sub-DetailTex IDs (3x i)" style="text;strokeColor=none;fillColor=none;align=left;verticalAlign=top;spacingLeft=4;spacingRight=4;overflow=hidden;rotatable=0;points=[[0,0.5],[1,0.5]];portConstraint=eastwest;whiteSpace=wrap;html=1;rounded=1;" parent="DBAXHwcExQwCoNQj6KUt-145" vertex="1">
          <mxGeometry y="144" width="200" height="26" as="geometry" />
        </mxCell>
        <mxCell id="DBAXHwcExQwCoNQj6KUt-148" style="edgeStyle=entityRelationEdgeStyle;shape=connector;rounded=1;orthogonalLoop=1;jettySize=auto;html=1;exitX=1;exitY=0.5;exitDx=0;exitDy=0;strokeColor=default;align=center;verticalAlign=middle;fontFamily=Helvetica;fontSize=11;fontColor=default;labelBackgroundColor=default;endArrow=classic;" parent="1" source="DBAXHwcExQwCoNQj6KUt-138" target="DBAXHwcExQwCoNQj6KUt-146" edge="1">
          <mxGeometry relative="1" as="geometry" />
        </mxCell>
        <mxCell id="DBAXHwcExQwCoNQj6KUt-150" style="edgeStyle=entityRelationEdgeStyle;shape=connector;rounded=1;orthogonalLoop=1;jettySize=auto;html=1;exitX=1;exitY=0.5;exitDx=0;exitDy=0;strokeColor=default;align=center;verticalAlign=middle;fontFamily=Helvetica;fontSize=11;fontColor=default;labelBackgroundColor=default;endArrow=classic;" parent="1" source="DBAXHwcExQwCoNQj6KUt-142" target="DBAXHwcExQwCoNQj6KUt-147" edge="1">
          <mxGeometry relative="1" as="geometry" />
        </mxCell>
        <mxCell id="DBAXHwcExQwCoNQj6KUt-151" style="edgeStyle=entityRelationEdgeStyle;shape=connector;rounded=1;orthogonalLoop=1;jettySize=auto;html=1;exitX=1;exitY=0.5;exitDx=0;exitDy=0;strokeColor=default;align=center;verticalAlign=middle;fontFamily=Helvetica;fontSize=11;fontColor=default;labelBackgroundColor=default;endArrow=classic;" parent="1" source="DBAXHwcExQwCoNQj6KUt-144" target="DBAXHwcExQwCoNQj6KUt-149" edge="1">
          <mxGeometry relative="1" as="geometry" />
        </mxCell>
        <mxCell id="DBAXHwcExQwCoNQj6KUt-154" style="edgeStyle=entityRelationEdgeStyle;shape=connector;rounded=1;orthogonalLoop=1;jettySize=auto;html=1;exitX=1;exitY=0.5;exitDx=0;exitDy=0;strokeColor=default;align=center;verticalAlign=middle;fontFamily=Helvetica;fontSize=11;fontColor=default;labelBackgroundColor=default;endArrow=classic;" parent="1" source="DBAXHwcExQwCoNQj6KUt-152" target="DBAXHwcExQwCoNQj6KUt-153" edge="1">
          <mxGeometry relative="1" as="geometry" />
        </mxCell>
        <mxCell id="DBAXHwcExQwCoNQj6KUt-152" value="Custom DetailTex IDs (3x i)" style="whiteSpace=wrap;html=1;rounded=1;fontFamily=Helvetica;fontSize=11;labelBackgroundColor=none;fillColor=none;strokeColor=default;" parent="1" vertex="1">
          <mxGeometry x="480" y="79" width="160" height="41" as="geometry" />
        </mxCell>
        <mxCell id="DBAXHwcExQwCoNQj6KUt-158" style="edgeStyle=entityRelationEdgeStyle;shape=connector;rounded=1;orthogonalLoop=1;jettySize=auto;html=1;exitX=1;exitY=0.5;exitDx=0;exitDy=0;strokeColor=default;align=center;verticalAlign=middle;fontFamily=Helvetica;fontSize=11;fontColor=default;labelBackgroundColor=default;endArrow=classic;" parent="1" source="DBAXHwcExQwCoNQj6KUt-156" target="DBAXHwcExQwCoNQj6KUt-157" edge="1">
          <mxGeometry relative="1" as="geometry" />
        </mxCell>
        <mxCell id="DBAXHwcExQwCoNQj6KUt-156" value="Custom Sub-DetailTex IDs (3x i)" style="whiteSpace=wrap;html=1;rounded=1;fontFamily=Helvetica;fontSize=11;labelBackgroundColor=none;fillColor=none;strokeColor=default;" parent="1" vertex="1">
          <mxGeometry x="460" y="159" width="180" height="41" as="geometry" />
        </mxCell>
        <mxCell id="DBAXHwcExQwCoNQj6KUt-165" style="edgeStyle=entityRelationEdgeStyle;shape=connector;rounded=1;orthogonalLoop=1;jettySize=auto;html=1;exitX=1;exitY=0.5;exitDx=0;exitDy=0;strokeColor=default;align=center;verticalAlign=middle;fontFamily=Helvetica;fontSize=11;fontColor=default;labelBackgroundColor=default;endArrow=classic;" parent="1" source="DBAXHwcExQwCoNQj6KUt-164" target="DBAXHwcExQwCoNQj6KUt-104" edge="1">
          <mxGeometry relative="1" as="geometry" />
        </mxCell>
        <mxCell id="DBAXHwcExQwCoNQj6KUt-164" value="PatternTex IDs (3x i)" style="whiteSpace=wrap;html=1;rounded=1;fontFamily=Helvetica;fontSize=11;labelBackgroundColor=none;fillColor=none;strokeColor=default;" parent="1" vertex="1">
          <mxGeometry x="1200" y="239" width="140" height="40" as="geometry" />
        </mxCell>
        <mxCell id="DBAXHwcExQwCoNQj6KUt-166" value="&lt;div&gt;Mask-indicators:&lt;/div&gt;&lt;div&gt;Для каждой маски (RGBA) - отмечает, является ли она одной из трёх перекрасок (и если да - то какой: 0-2).&lt;/div&gt;&lt;div&gt;Sub-индикатор - это флаг (тоже для каждой из RGBA), обозначающий, является ли эта маска &quot;вторичной&quot; (вспомогательной) detail-текстурой (напр., основная - просто ткань, вспомогательная - с потёртостями).&lt;/div&gt;&lt;div&gt;Т.к. кол-во вариантов тут детерминировано - всё это вместе кодируется в один-единственный float.&lt;br&gt;&lt;/div&gt;" style="shape=note;whiteSpace=wrap;html=1;backgroundOutline=1;darkOpacity=0.05;rounded=1;fontFamily=Helvetica;fontSize=11;fontColor=default;labelBackgroundColor=none;fillColor=none;" parent="1" vertex="1">
          <mxGeometry x="360" y="600" width="160" height="280" as="geometry" />
        </mxCell>
      </root>
    </mxGraphModel>
  </diagram>
</mxfile>
